<?xml version="1.0" encoding="UTF-8" standalone="no"?>
<!DOCTYPE svg PUBLIC "-//W3C//DTD SVG 1.1//EN" "http://www.w3.org/Graphics/SVG/1.1/DTD/svg11.dtd">
<svg xmlns="http://www.w3.org/2000/svg" version="1.1" viewBox="0 0 272 150">
<g stroke-width="2.00" fill="none" stroke-linecap="butt">
<path stroke="#80cceb" vector-effect="non-scaling-stroke" d="
  M 272.00 90.06
  L 204.31 38.74
  A 0.66 0.65 18.5 0 0 203.26 39.26
  L 203.25 141.98
  A 0.32 0.32 0.0 0 0 203.76 142.23
  L 272.00 90.56"
/>
<path stroke="#8098ac" vector-effect="non-scaling-stroke" d="
  M 99.36 25.44
  C 84.26 13.57 61.92 12.25 43.71 16.20
  C 15.34 22.36 5.75 43.50 5.73 70.01
  Q 5.69 106.05 5.81 142.21
  A 0.54 0.54 0.0 0 0 6.35 142.75
  L 38.64 142.75
  A 0.39 0.38 90.0 0 0 39.02 142.36
  Q 38.95 105.18 39.04 68.07
  Q 39.06 57.93 40.29 54.22
  C 44.01 42.97 55.33 39.14 66.31 41.26
  C 78.59 43.62 82.46 52.10 82.47 63.56
  Q 82.49 102.83 82.55 142.20
  A 0.55 0.55 0.0 0 0 83.10 142.75
  L 114.72 142.75
  A 0.53 0.53 0.0 0 0 115.25 142.22
  C 115.25 116.55 115.32 90.86 115.45 65.20
  Q 115.48 58.35 116.31 55.40
  C 119.77 42.99 132.18 38.83 143.77 41.27
  Q 158.98 44.47 159.28 60.51
  Q 159.81 89.64 159.66 118.77
  C 159.61 128.47 158.96 135.31 166.96 140.05
  C 173.46 143.91 186.10 143.05 193.63 142.60
  A 0.53 0.53 0.0 0 0 194.13 142.07
  Q 194.66 91.11 194.22 40.11
  Q 194.20 37.61 193.07 35.75
  C 183.75 20.32 159.22 14.95 142.80 14.26
  C 128.08 13.65 112.04 16.08 100.14 25.44
  A 0.63 0.63 0.0 0 1 99.36 25.44"
/>
</g>
<path fill="transparent" d="
  M 0.00 0.00
  L 272.00 0.00
  L 272.00 90.06
  L 204.31 38.74
  A 0.66 0.65 18.5 0 0 203.26 39.26
  L 203.25 141.98
  A 0.32 0.32 0.0 0 0 203.76 142.23
  L 272.00 90.56
  L 272.00 150.00
  L 0.00 150.00
  L 0.00 0.00
  Z
  M 99.36 25.44
  C 84.26 13.57 61.92 12.25 43.71 16.20
  C 15.34 22.36 5.75 43.50 5.73 70.01
  Q 5.69 106.05 5.81 142.21
  A 0.54 0.54 0.0 0 0 6.35 142.75
  L 38.64 142.75
  A 0.39 0.38 90.0 0 0 39.02 142.36
  Q 38.95 105.18 39.04 68.07
  Q 39.06 57.93 40.29 54.22
  C 44.01 42.97 55.33 39.14 66.31 41.26
  C 78.59 43.62 82.46 52.10 82.47 63.56
  Q 82.49 102.83 82.55 142.20
  A 0.55 0.55 0.0 0 0 83.10 142.75
  L 114.72 142.75
  A 0.53 0.53 0.0 0 0 115.25 142.22
  C 115.25 116.55 115.32 90.86 115.45 65.20
  Q 115.48 58.35 116.31 55.40
  C 119.77 42.99 132.18 38.83 143.77 41.27
  Q 158.98 44.47 159.28 60.51
  Q 159.81 89.64 159.66 118.77
  C 159.61 128.47 158.96 135.31 166.96 140.05
  C 173.46 143.91 186.10 143.05 193.63 142.60
  A 0.53 0.53 0.0 0 0 194.13 142.07
  Q 194.66 91.11 194.22 40.11
  Q 194.20 37.61 193.07 35.75
  C 183.75 20.32 159.22 14.95 142.80 14.26
  C 128.08 13.65 112.04 16.08 100.14 25.44
  A 0.63 0.63 0.0 0 1 99.36 25.44
  Z"
/>
<path fill="#003058" d="
  M 100.14 25.44
  C 112.04 16.08 128.08 13.65 142.80 14.26
  C 159.22 14.95 183.75 20.32 193.07 35.75
  Q 194.20 37.61 194.22 40.11
  Q 194.66 91.11 194.13 142.07
  A 0.53 0.53 0.0 0 1 193.63 142.60
  C 186.10 143.05 173.46 143.91 166.96 140.05
  C 158.96 135.31 159.61 128.47 159.66 118.77
  Q 159.81 89.64 159.28 60.51
  Q 158.98 44.47 143.77 41.27
  C 132.18 38.83 119.77 42.99 116.31 55.40
  Q 115.48 58.35 115.45 65.20
  C 115.32 90.86 115.25 116.55 115.25 142.22
  A 0.53 0.53 0.0 0 1 114.72 142.75
  L 83.10 142.75
  A 0.55 0.55 0.0 0 1 82.55 142.20
  Q 82.49 102.83 82.47 63.56
  C 82.46 52.10 78.59 43.62 66.31 41.26
  C 55.33 39.14 44.01 42.97 40.29 54.22
  Q 39.06 57.93 39.04 68.07
  Q 38.95 105.18 39.02 142.36
  A 0.39 0.38 -90.0 0 1 38.64 142.75
  L 6.35 142.75
  A 0.54 0.54 0.0 0 1 5.81 142.21
  Q 5.69 106.05 5.73 70.01
  C 5.75 43.50 15.34 22.36 43.71 16.20
  C 61.92 12.25 84.26 13.57 99.36 25.44
  A 0.63 0.63 0.0 0 0 100.14 25.44
  Z"
/>
<path fill="#0099d7" d="
  M 272.00 90.06
  L 272.00 90.56
  L 203.76 142.23
  A 0.32 0.32 0.0 0 1 203.25 141.98
  L 203.26 39.26
  A 0.66 0.65 18.5 0 1 204.31 38.74
  L 272.00 90.06
  Z"
/>
</svg>
